# xmcd
#
# Track frame offsets:
#	150
#	18185
#	68395
#	83970
#	106475
#	120335
#	135905
#	148485
#	163182
#	183645
#	210532
#	224300
#
# Disc length: 3189
#
# Revision: 1
# Processed by: cddbd v1.5.1PL0 Copyright (c) Steve Scherf et al.
# Submitted via: ExactAudioCopy v0.90b4
# Normalized: r0:DSETVAR1,TDELIM( - )
#
DISCID=a70c730c
DTITLE=Various Artist - Classic Blues
DYEAR=1999
DGENRE=Blues
TTITLE0=Muddy Waters - Im your hoochie coochie man
TTITLE1=Mike Bloomfield, Al Kooper, Steve Stills - Season of the Witch
TTITLE2=Taj Mahal - Further on down the road
TTITLE3=Van Morrison - It's all right
TTITLE4=Robert Johnson - Terraplane blues
TTITLE5=Bessie Smith - Careless love blues
TTITLE6=Menphis Minnie - Me and my chauffeur blues
TTITLE7=Chicken Shack - I'd rather go blind
TTITLE8=Janis Joplin - Me and Bobby McGee
TTITLE9=Blood, Sweat and Tears - I love you more than you'll ever know
TTITLE10=Big Bill Broonzy - Key to the highway
TTITLE11=Louis Armstrong - St James infirmary
EXTD=
EXTT0=
EXTT1=
EXTT2=
EXTT3=
EXTT4=
EXTT5=
EXTT6=
EXTT7=
EXTT8=
EXTT9=
EXTT10=
EXTT11=
PLAYORDER=
